<svg width="29" height="24" viewBox="0 0 29 24" fill="none" xmlns="http://www.w3.org/2000/svg">
<path d="M18.3915 10.3665L15.1664 12.0721C15.1262 12.0936 15.0817 12.1054 15.0359 12.1054C14.9435 12.1047 14.8574 12.0589 14.806 11.9818C14.7546 11.9047 14.7449 11.8075 14.7803 11.7221L15.6498 9.60263C15.7074 9.46097 15.8692 9.39291 16.0109 9.44986C16.1525 9.5075 16.2206 9.6693 16.1636 9.81096L15.5831 11.2193L18.1331 9.87485C18.1984 9.83874 18.2755 9.83041 18.3477 9.85124C18.4192 9.87277 18.479 9.92207 18.5137 9.98874C18.5491 10.0547 18.5554 10.1318 18.5324 10.2033C18.5095 10.2742 18.4589 10.3332 18.3915 10.3665ZM21.8388 11.8249C21.8457 13.4874 21.2402 15.0944 20.1381 16.3388C19.036 17.584 17.5145 18.3797 15.8638 18.5749C15.7075 18.8249 15.4339 18.9777 15.1388 18.9777H6.63889C6.16319 18.9777 5.77777 18.5923 5.77777 18.1166V17.8971C5.77847 17.5763 5.95902 17.2825 6.24444 17.136C6.34235 15.6332 7.1611 14.2701 8.44159 13.4777C7.98465 11.659 8.29993 9.73192 9.31311 8.15343C10.3263 6.57496 11.9471 5.48605 13.7915 5.14436V4.78326C13.7922 4.68118 13.7526 4.58257 13.6804 4.50964C13.6082 4.43672 13.5103 4.39506 13.4082 4.39436C13.1304 4.39436 12.8631 4.28534 12.6637 4.09159C12.47 3.89436 12.3603 3.62908 12.3582 3.35271C12.3582 2.7784 12.8228 2.31243 13.3971 2.31104H16.6499C16.927 2.31034 17.1929 2.41937 17.3895 2.6152C17.5853 2.81035 17.6964 3.07561 17.6971 3.35269C17.6943 3.6277 17.5846 3.89019 17.3915 4.08603C17.195 4.28325 16.9283 4.39436 16.6499 4.39436C16.5478 4.39506 16.4499 4.43672 16.3777 4.50964C16.3054 4.58256 16.2659 4.68117 16.2666 4.78326V5.13881C17.8304 5.42701 19.2443 6.25409 20.2625 7.4757C21.2798 8.69793 21.8382 10.2375 21.8389 11.8277L21.8388 11.8249ZM14.3387 4.78041V5.05819C14.5665 5.03597 14.797 5.02486 15.0276 5.02486C15.2582 5.02486 15.4804 5.02486 15.7026 5.05819V4.78041C15.7019 4.53042 15.8005 4.29083 15.9762 4.11375C16.1526 3.93667 16.3915 3.83666 16.6415 3.83597C16.7741 3.83944 16.9033 3.79083 16.9998 3.69986C17.0908 3.6068 17.1415 3.48249 17.1415 3.35264C17.1422 3.22278 17.0908 3.09778 16.9978 3.00612C16.9054 2.91445 16.7797 2.86445 16.6498 2.86653H13.397C13.1297 2.86792 12.9137 3.08529 12.9137 3.35265C12.9151 3.48251 12.9672 3.60751 13.0581 3.69987C13.1491 3.78737 13.2706 3.83737 13.397 3.83876C13.6484 3.83737 13.8901 3.93598 14.0685 4.11307C14.247 4.29084 14.347 4.53182 14.347 4.7832L14.3387 4.78041ZM6.80822 17.0332H14.9693V16.8943C14.8353 15.9075 14.3478 15.0033 13.5978 14.3485C12.8471 13.6944 11.8846 13.3347 10.8888 13.3361C10.6617 13.3354 10.4346 13.3555 10.211 13.3944C9.7492 13.4687 9.30476 13.6236 8.89713 13.8527C7.72143 14.5062 6.94085 15.6942 6.80822 17.0332ZM10.8888 12.7804C11.0971 12.7818 11.3047 12.7978 11.511 12.8276V12.5887C11.5096 12.4221 11.4429 12.2624 11.3249 12.1443C11.1457 11.9686 10.879 11.9172 10.6478 12.0144C10.4165 12.1117 10.2665 12.338 10.2665 12.5887V12.8276C10.4728 12.7964 10.6804 12.7804 10.8888 12.7804ZM15.4443 17.897C15.4443 17.7283 15.3075 17.5915 15.1387 17.5915H6.63884C6.47009 17.5915 6.33327 17.7283 6.33327 17.897V18.1165C6.33327 18.1977 6.36522 18.2755 6.42286 18.3325C6.4798 18.3901 6.55758 18.422 6.63882 18.422H15.1387C15.2547 18.4241 15.3623 18.3609 15.4165 18.2581C15.42 18.2387 15.4269 18.22 15.436 18.2026C15.4464 18.1748 15.4533 18.1456 15.4554 18.1165L15.4443 17.897ZM15.4749 16.5665C16.6103 16.4658 17.6713 15.9595 18.4637 15.1401C19.256 14.3206 19.7262 13.2436 19.7887 12.1054H18.7498C18.5963 12.1054 18.472 11.9811 18.472 11.8277C18.472 11.6742 18.5963 11.5499 18.7498 11.5499H19.7887C19.7185 10.386 19.2248 9.28801 18.4005 8.46312C17.5755 7.63881 16.4776 7.14505 15.3137 7.07492V8.11382C15.3137 8.26729 15.1894 8.3916 15.0359 8.3916C14.8825 8.3916 14.7582 8.26729 14.7582 8.11382V7.07492C13.5894 7.14506 12.4874 7.64297 11.6623 8.47423C10.8373 9.30548 10.3471 10.4111 10.2859 11.5805C10.7471 11.3007 11.3394 11.3729 11.7193 11.7555C11.9408 11.9764 12.0658 12.2757 12.0665 12.5889V12.9361C12.9193 13.1583 13.6915 13.6173 14.2949 14.2597C14.8977 14.9021 15.3067 15.7014 15.4748 16.5667L15.4749 16.5665ZM21.3081 11.8276C21.3081 9.59492 20.1171 7.5311 18.1831 6.41519C16.2491 5.29853 13.8672 5.29853 11.9332 6.41519C9.99914 7.53115 8.8082 9.5951 8.8082 11.8276C8.80751 12.295 8.85959 12.761 8.96376 13.2165C9.2089 13.0999 9.46514 13.0068 9.72765 12.9387V12.5887C9.72626 12.495 9.73737 12.4019 9.76098 12.311C9.74293 12.1471 9.7339 11.9818 9.73321 11.8165C9.7339 10.4325 10.2735 9.10328 11.2374 8.11092C12.2013 7.11787 13.5145 6.54009 14.8971 6.49842C16.2804 6.45745 17.6256 6.95675 18.6464 7.89078C19.668 8.82411 20.2853 10.1192 20.368 11.5006C20.4506 12.8818 19.9923 14.2408 19.0895 15.2901C18.1874 16.3387 16.9117 16.9949 15.5332 17.1192C15.5318 17.1248 15.5318 17.1303 15.5332 17.1359C15.8166 17.2845 15.995 17.5769 15.9971 17.897V17.9942C17.4714 17.772 18.8172 17.0269 19.7881 15.8948C20.7582 14.7622 21.2894 13.3185 21.2832 11.8275L21.3081 11.8276Z" fill="white"/>
</svg>
