<svg width="27" height="24" viewBox="0 0 27 24" fill="none" xmlns="http://www.w3.org/2000/svg">
<path d="M8.94939 14.0165C8.80638 13.4435 8.29449 13.0434 7.70448 13.0434H4.34782V7.03282C4.34782 6.71132 4.21807 6.39729 3.99218 6.17158C3.7663 5.94519 3.4521 5.81543 3.13043 5.81543C2.45924 5.81543 1.91304 6.36163 1.91304 7.03282V20.6955C1.91304 20.8876 2.06861 21.0434 2.26087 21.0434H4C4.19225 21.0434 4.34782 20.8876 4.34782 20.6955V15.4781H6.34782V20.6955C6.34782 20.8876 6.50339 21.0434 6.69565 21.0434H8.08695C8.27921 21.0434 8.43478 20.8876 8.43478 20.6955V15.4781H8.86956C8.97656 15.4781 9.07778 15.4287 9.14368 15.3443C9.20958 15.2599 9.23301 15.1498 9.20686 15.0459L8.94939 14.0165ZM3.65217 13.3912V15.1303V20.3477H2.60869V7.03282C2.60869 6.74512 2.84273 6.51108 3.13043 6.51108C3.26868 6.51108 3.40319 6.56645 3.5 6.66343C3.5968 6.75989 3.65217 6.89457 3.65217 7.03282V13.3912ZM7.73913 20.3477H7.04348V15.4781H7.73913V20.3477ZM8.08695 14.7825H6.69565H4.34782V13.739H7.70448C7.97452 13.739 8.2089 13.9224 8.27479 14.1852L8.42391 14.7825H8.08695Z" fill="white"/>
<path d="M22.4348 9.21737H21.1244C21.5292 8.88982 21.8585 8.46444 22.0622 7.95531C22.105 7.84814 22.0917 7.72671 22.0272 7.63109C21.9623 7.53547 21.8546 7.47824 21.7391 7.47824H21.4435C21.2195 7.02686 20.7567 6.7279 20.2344 6.7279C20.2048 6.7279 20.1759 6.72909 20.1481 6.73113C19.8495 6.41268 19.4283 6.22773 18.984 6.22773C18.5735 6.22773 18.1853 6.38547 17.8916 6.65922C17.6912 6.54545 17.4644 6.47773 17.2289 6.47773C16.6064 6.47773 16.0864 6.90385 15.932 7.47824H15.4783C15.3628 7.47824 15.2551 7.53598 15.1906 7.63143C15.1257 7.72705 15.1128 7.84882 15.1556 7.95599C15.3591 8.46476 15.6883 8.88992 16.0929 9.21737H14.1331L14.4321 6.82573C14.4446 6.72671 14.4137 6.62719 14.3478 6.55246C14.2816 6.47756 14.1868 6.43476 14.087 6.43476H12.6193L12.3373 5.30687C12.2986 5.15215 12.1596 5.04346 12 5.04346H11.3043C11.1121 5.04346 10.9565 5.1992 10.9565 5.39128C10.9565 5.58337 11.1121 5.73911 11.3043 5.73911H11.7283L11.9023 6.43476H11.6498C11.5476 6.43476 11.4504 6.47977 11.3845 6.55772C11.3183 6.63585 11.2897 6.73894 11.3067 6.83982L11.7029 9.21737H11.3043C10.3454 9.21737 9.56522 9.9976 9.56522 10.9565V17.913C9.56522 18.1051 9.72079 18.2608 9.91304 18.2608H15.4783V20.6956C15.4783 20.8877 15.6338 21.0435 15.8261 21.0435H17.913C18.1053 21.0435 18.2609 20.8877 18.2609 20.6956V18.2608H23.8261C24.0183 18.2608 24.1739 18.1051 24.1739 17.913V10.9565C24.1739 9.9976 23.3937 9.21737 22.4348 9.21737ZM18.984 6.92338C19.2772 6.92338 19.552 7.06554 19.7194 7.30365C19.7996 7.41727 19.9382 7.47264 20.0761 7.44393C20.1433 7.42967 20.1906 7.42355 20.2344 7.42355C20.3278 7.42355 20.4171 7.44291 20.4983 7.47824H18.535C18.5226 7.43285 18.5058 7.38886 18.4886 7.345C18.4846 7.33466 18.482 7.32388 18.4777 7.31363C18.4531 7.25495 18.4248 7.19771 18.392 7.14264C18.5547 7.0027 18.7639 6.92338 18.984 6.92338ZM17.2289 7.17338C17.4076 7.17338 17.5723 7.24251 17.695 7.37056C17.727 7.40326 17.7548 7.43835 17.7788 7.47522C17.7795 7.4762 17.7798 7.47726 17.7804 7.47824H16.677C16.7928 7.29516 16.9969 7.17338 17.2289 7.17338ZM16.0557 8.17389H16.2286H18.2334H21.1617C20.7174 8.8208 19.982 9.21737 19.1712 9.21737H18.0462C17.2354 9.21737 16.5 8.8208 16.0557 8.17389ZM13.6929 7.13041L13.4321 9.21737H12.4079L12.0605 7.13041H13.6929ZM17.5652 20.3478H16.1739V18.2608H17.5652V20.3478ZM23.4783 17.5652H17.913H15.8261H10.2609V10.9565C10.2609 10.3811 10.7289 9.91302 11.3043 9.91302H12.1134H13.7391H18.0462H19.1712H22.4348C23.0102 9.91302 23.4783 10.3811 23.4783 10.9565V17.5652Z" fill="white"/>
<path d="M22.4348 10.6089H11.3043C11.1121 10.6089 10.9565 10.7646 10.9565 10.9567C10.9565 11.1488 11.1121 11.3045 11.3043 11.3045H22.4348C22.627 11.3045 22.7826 11.1488 22.7826 10.9567C22.7826 10.7646 22.627 10.6089 22.4348 10.6089Z" fill="white"/>
<path d="M12 13.7393C11.8077 13.7393 11.6522 13.895 11.6522 14.0871V16.5219C11.6522 16.714 11.8077 16.8697 12 16.8697C12.1923 16.8697 12.3478 16.714 12.3478 16.5219V14.0871C12.3478 13.895 12.1923 13.7393 12 13.7393Z" fill="white"/>
<path d="M18.6087 13.7393C18.4164 13.7393 18.2609 13.895 18.2609 14.0871V16.5219C18.2609 16.714 18.4164 16.8697 18.6087 16.8697C18.8009 16.8697 18.9565 16.714 18.9565 16.5219V14.0871C18.9565 13.895 18.8009 13.7393 18.6087 13.7393Z" fill="white"/>
<path d="M21.7391 13.7393C21.5469 13.7393 21.3913 13.895 21.3913 14.0871V16.5219C21.3913 16.714 21.5469 16.8697 21.7391 16.8697C21.9314 16.8697 22.0869 16.714 22.0869 16.5219V14.0871C22.0869 13.895 21.9314 13.7393 21.7391 13.7393Z" fill="white"/>
<path d="M15.1304 13.7393C14.9382 13.7393 14.7826 13.895 14.7826 14.0871V16.5219C14.7826 16.714 14.9382 16.8697 15.1304 16.8697C15.3227 16.8697 15.4783 16.714 15.4783 16.5219V14.0871C15.4783 13.895 15.3227 13.7393 15.1304 13.7393Z" fill="white"/>
</svg>
