<svg width="29" height="24" viewBox="0 0 29 24" fill="none" xmlns="http://www.w3.org/2000/svg">
<path d="M26.0106 7.08301C26.0106 4.88387 24.6652 3.09569 23.0116 3.09569C22.2846 3.09569 21.6184 3.44078 21.0987 4.01524C19.0472 2.15221 16.4062 1.12988 13.6248 1.12988C10.9519 1.12988 8.41373 2.07237 6.40002 3.79567V3.40672C6.40002 3.23517 6.26139 3.09553 6.08884 3.09553C5.9173 3.09553 5.77766 3.23416 5.77766 3.40672V8.50416H4.54794V3.40672C4.54794 3.23517 4.40931 3.09553 4.23676 3.09553C4.06521 3.09553 3.92557 3.23416 3.92557 3.40672V8.50416H2.69585V3.40672C2.69585 3.23517 2.55722 3.09553 2.38467 3.09553C2.21313 3.09653 2.07451 3.23516 2.07451 3.40672V9.74884C2.07451 9.81766 2.09745 9.88348 2.13934 9.93834C2.49538 10.4021 2.93024 10.7362 3.40595 10.9167L2.95317 21.0876C2.93721 21.4497 3.07185 21.8087 3.32317 22.071C3.56553 22.3243 3.89864 22.4699 4.23673 22.4699C4.57483 22.4699 4.90794 22.3243 5.15029 22.071C5.40162 21.8087 5.53626 21.4507 5.5203 21.0876L5.46345 19.817C7.56684 22.0919 10.493 23.3805 13.6237 23.3805C16.7544 23.3805 19.6806 22.0919 21.784 19.817L21.7271 21.0876C21.7112 21.4497 21.8458 21.8087 22.0971 22.071C22.3395 22.3243 22.6726 22.4699 23.0107 22.4699C23.3488 22.4699 23.6819 22.3243 23.9242 22.071C24.1756 21.8087 24.3102 21.4507 24.2942 21.0876L23.8425 10.9167C25.1131 10.433 26.0106 8.87034 26.0106 7.08301ZM13.6246 1.7522C16.2694 1.7522 18.7797 2.73058 20.7217 4.51271C20.6389 4.64236 20.5631 4.77901 20.4933 4.92262C18.6253 3.1683 16.2037 2.20679 13.6247 2.20679C10.879 2.20679 8.28905 3.31483 6.39994 5.27164V4.63235C8.35872 2.77432 10.9187 1.7522 13.6246 1.7522ZM6.33497 9.93824C6.37686 9.88438 6.3998 9.81756 6.3998 9.74874V6.20211C8.19801 4.05783 10.825 2.82909 13.6246 2.82909C16.1269 2.82909 18.4698 3.79251 20.245 5.54594C20.0954 6.01968 20.0126 6.53829 20.0126 7.08283C20.0126 8.87006 20.9102 10.4319 22.1798 10.9157L21.9215 16.7293C20.2709 19.7852 17.0983 21.6812 13.6247 21.6812C10.1511 21.6812 6.97846 19.7853 5.32782 16.7293L5.06952 10.9157C5.54426 10.7362 5.97793 10.401 6.33497 9.93824ZM4.70133 21.6411C4.57567 21.7727 4.40613 21.8475 4.23658 21.8475C4.06702 21.8475 3.89749 21.7717 3.77182 21.6411C3.63518 21.4984 3.56537 21.3119 3.57435 21.1154L4.03612 10.7071C4.0421 10.5605 3.94636 10.4299 3.80473 10.3929C3.39581 10.2852 3.01483 10.0259 2.69568 9.63995V9.12533H5.77738V9.63896C5.45823 10.0249 5.07724 10.2842 4.66832 10.3919C4.5267 10.4288 4.42996 10.5605 4.43694 10.7061L4.89871 21.1145C4.90769 21.3119 4.83797 21.4994 4.70133 21.6411ZM13.6245 22.7581C10.411 22.7581 7.4261 21.3199 5.41929 18.8116L5.38339 18.0068C7.25041 20.6835 10.3082 22.3022 13.6243 22.3022C16.9394 22.3022 19.9984 20.6826 21.8653 18.0068L21.8294 18.8116C19.8217 21.3209 16.8376 22.7581 13.6242 22.7581H13.6245ZM23.4433 10.393C23.3017 10.4299 23.2049 10.5615 23.2119 10.7071L23.6737 21.1155C23.6827 21.312 23.6118 21.4994 23.4762 21.6411C23.3505 21.7727 23.181 21.8475 23.0114 21.8475C22.8419 21.8475 22.6724 21.7717 22.5467 21.6411C22.4101 21.4985 22.3402 21.3119 22.3492 21.1155L22.811 10.7071C22.817 10.5605 22.7212 10.4299 22.5796 10.393C21.4526 10.0967 20.6338 8.70446 20.6338 7.08377C20.6338 5.22773 21.7 3.71764 23.0114 3.71764C24.322 3.71764 25.3891 5.22763 25.3891 7.08377C25.3891 8.70446 24.5703 10.0958 23.4433 10.393ZM7.98959 9.52028C8.26286 9.98703 8.75555 10.2474 9.26121 10.2474C9.51353 10.2474 9.76985 10.1825 10.0022 10.0459C10.2835 9.88133 10.4949 9.632 10.6156 9.34377L11.0165 9.61504L11.6857 10.757C11.7416 10.8518 11.8423 10.9096 11.952 10.9106H11.959C12.2672 10.9106 12.6392 10.7959 12.9813 10.5944C13.3264 10.392 13.6106 10.1207 13.7602 9.85041C13.8131 9.75467 13.8111 9.63798 13.7562 9.54324L13.087 8.40127L13.0461 7.91956C13.3563 7.95546 13.6774 7.89263 13.9577 7.72707C14.6578 7.31716 14.8932 6.41358 14.4823 5.71444C14.1332 5.12003 13.4401 4.85871 12.8067 5.04323C12.6063 4.73705 12.3041 4.51863 11.947 4.42587C11.6389 4.34509 11.3197 4.36603 11.0285 4.48372C10.8539 4.32314 10.6415 4.20647 10.4051 4.14562C10.0251 4.04689 9.62919 4.10074 9.29109 4.29921C9.29109 4.29921 9.2901 4.29921 9.2901 4.30021C8.95101 4.49868 8.70965 4.81782 8.6109 5.19781C8.54906 5.43418 8.54707 5.67554 8.60192 5.90691C8.35757 6.10338 8.18404 6.37167 8.10326 6.67984C8.0105 7.03687 8.05239 7.40691 8.22194 7.73104C7.7522 8.19281 7.64153 8.92488 7.98959 9.52028ZM13.121 9.68684C13.0113 9.81849 12.8517 9.95012 12.6682 10.0578C12.4847 10.1656 12.2912 10.2404 12.1237 10.2713L11.5183 9.23802C11.4953 9.19813 11.4624 9.16422 11.4245 9.13729L11.1004 8.91788C11.3487 8.86502 11.5991 8.76828 11.8334 8.63164C12.0678 8.49401 12.2743 8.32347 12.4418 8.13198L12.4747 8.52193C12.4787 8.56781 12.4927 8.61269 12.5166 8.65258L13.121 9.68684ZM8.62406 8.21079C8.77865 8.33147 8.95817 8.42023 9.15364 8.47208C9.3192 8.51596 9.48974 8.41623 9.53363 8.25067C9.57752 8.08511 9.47778 7.91457 9.31222 7.87068C9.14168 7.8258 8.99208 7.73105 8.88037 7.59841C8.87838 7.59641 8.87639 7.59342 8.87439 7.59142C8.84547 7.55652 8.81854 7.51862 8.7956 7.47773C8.68091 7.28225 8.64899 7.05285 8.70684 6.83346C8.74075 6.7028 8.80358 6.58512 8.89035 6.48737C9.00105 6.625 9.13569 6.74169 9.28729 6.83146C9.4349 6.91923 9.62539 6.86936 9.71316 6.72176C9.79993 6.57415 9.75106 6.38366 9.60346 6.29588C9.48078 6.22308 9.37706 6.11935 9.30425 5.99468C9.28729 5.96676 9.27333 5.93784 9.25937 5.90891C9.25837 5.90592 9.25737 5.90393 9.25638 5.90093C9.18158 5.72839 9.16662 5.5359 9.21449 5.35141C9.27134 5.13199 9.41096 4.9475 9.60646 4.83281C9.80193 4.71811 10.0303 4.6862 10.2507 4.74404C10.4362 4.79291 10.5958 4.89863 10.7105 5.04922C10.7125 5.05122 10.7135 5.05321 10.7155 5.05521C10.7344 5.08114 10.7524 5.10807 10.7694 5.13599C10.8422 5.26066 10.883 5.4013 10.886 5.54491C10.89 5.71646 11.0307 5.85308 11.2042 5.8481C11.3757 5.84412 11.5114 5.7015 11.5074 5.52995C11.5034 5.35342 11.4665 5.17889 11.4007 5.01533C11.5283 4.9884 11.662 4.9904 11.7926 5.02431C12.012 5.08116 12.1965 5.22078 12.3112 5.41627C12.3352 5.45617 12.3551 5.49805 12.3711 5.54094C12.3721 5.54393 12.3731 5.54692 12.3741 5.54992C12.4349 5.71148 12.4439 5.88801 12.4 6.05956C12.3571 6.22611 12.4569 6.39566 12.6234 6.43855C12.79 6.48145 12.9595 6.3817 13.0024 6.21515C13.0533 6.01967 13.0632 5.8192 13.0333 5.62572C13.3844 5.54693 13.7574 5.69952 13.9489 6.02665C14.1862 6.43056 14.0496 6.95218 13.6457 7.18855C13.3535 7.3601 12.9884 7.34115 12.7142 7.14168C12.6344 7.08383 12.5327 7.06688 12.4379 7.0958C12.3442 7.12472 12.2694 7.19753 12.2365 7.29028C12.1297 7.59746 11.8674 7.89069 11.5184 8.09513C11.1693 8.29958 10.7853 8.38435 10.4652 8.3285C10.3684 8.31155 10.2687 8.34147 10.1969 8.40929C10.1251 8.47711 10.0902 8.57485 10.1021 8.67257C10.143 9.00868 9.98046 9.33681 9.68824 9.50834C9.28433 9.7457 8.76271 9.60907 8.52634 9.20514C8.33485 8.87803 8.3837 8.47905 8.62406 8.21079ZM8.41063 17.7773L9.33118 16.0998L8.8704 15.0775C8.79959 14.921 8.86941 14.7365 9.02599 14.6666C9.18257 14.5958 9.36707 14.6656 9.4369 14.8222L9.70618 15.4186L10.9369 13.1776C11.0197 13.027 11.2082 12.9722 11.3588 13.0549C11.5094 13.1377 11.5642 13.3262 11.4814 13.4768L11.0735 14.2188L11.7208 14.1261C11.8903 14.1011 12.0479 14.2198 12.0729 14.3893C12.0978 14.5589 11.9791 14.7165 11.8096 14.7414L10.6995 14.901L9.74407 16.6413L10.3914 16.5486C10.5609 16.5236 10.7185 16.6423 10.7434 16.8119C10.7683 16.9814 10.6497 17.139 10.4801 17.1639L9.37007 17.3235L8.95717 18.0765C8.90032 18.1792 8.79461 18.2381 8.6839 18.2381C8.63304 18.2381 8.58217 18.2251 8.5343 18.2002C8.38271 18.1174 8.32785 17.9279 8.41063 17.7773ZM7.82518 19.2235C7.87904 19.2943 7.95982 19.3392 8.04858 19.3462C8.20317 19.3581 8.34978 19.3641 8.48942 19.3641C9.54759 19.3641 10.1759 19.0111 10.3604 18.3129C10.3963 18.1783 10.519 18.1284 10.8691 18.0466C11.0895 17.9958 11.3388 17.9369 11.5393 17.7873C11.9891 17.4502 12.1706 16.9944 12.3302 16.5925C12.4967 16.1736 12.6403 15.8116 13.0453 15.5423C14.3588 14.6696 13.1141 12.5464 12.4459 11.4043C12.388 11.3056 12.2803 11.2478 12.1666 11.2507C10.8451 11.2986 8.38481 11.3884 8.35366 12.9652C8.34369 13.4509 8.1163 13.766 7.85201 14.1321C7.59869 14.4821 7.31145 14.8801 7.26856 15.4406C7.24961 15.6899 7.33438 15.9323 7.40918 16.1447C7.52787 16.4848 7.5518 16.6144 7.45805 16.7172C6.90054 17.3186 7.02532 18.1613 7.82518 19.2235ZM7.91295 17.14C8.27798 16.7461 8.11441 16.2803 7.99473 15.9402C7.93788 15.7777 7.87804 15.6081 7.88701 15.4894C7.91693 15.1045 8.11939 14.8232 8.35476 14.4981C8.639 14.1051 8.96114 13.6593 8.97511 12.9792C8.99206 12.1424 10.4851 11.9459 12.0029 11.8811C12.7629 13.1966 13.3992 14.5619 12.7021 15.0256C12.1356 15.4016 11.9321 15.9132 11.7536 16.364C11.606 16.737 11.4774 17.0592 11.1682 17.2906C11.0724 17.3624 10.8979 17.4032 10.7303 17.4421C10.3793 17.5239 9.89857 17.6356 9.76192 18.1553C9.64723 18.5901 9.1356 18.7856 8.24099 18.7367C7.71638 18.0066 7.60677 17.4712 7.91295 17.14ZM17.2122 13.8459C18.78 13.8459 20.0557 12.2083 20.0557 10.1946C20.0557 8.18196 18.7801 6.54327 17.2122 6.54327C15.6444 6.54327 14.3687 8.18091 14.3687 10.1946C14.3687 12.2082 15.6443 13.8459 17.2122 13.8459ZM17.2122 7.16676C18.4369 7.16676 19.4333 8.52514 19.4333 10.1956C19.4333 11.8662 18.4369 13.2245 17.2122 13.2245C15.9874 13.2245 14.9911 11.8661 14.9911 10.1956C14.9901 8.52506 15.9864 7.16676 17.2122 7.16676ZM17.2122 12.5315C18.2145 12.5315 19.0303 11.7157 19.0303 10.7134C19.0303 9.71104 18.2145 8.89522 17.2122 8.89522C16.2098 8.89522 15.394 9.71104 15.394 10.7134C15.394 11.7157 16.2098 12.5315 17.2122 12.5315ZM17.2122 9.51646C17.8714 9.51646 18.408 10.053 18.408 10.7123C18.408 11.3725 17.8714 11.9091 17.2122 11.9091C16.5529 11.9091 16.0164 11.3725 16.0164 10.7133C16.0154 10.054 16.5519 9.51646 17.2122 9.51646ZM15.2135 16.466C15.0061 16.3304 14.7587 16.2835 14.5164 16.3343C14.0157 16.4391 13.6935 16.9307 13.7983 17.4314C13.889 17.8683 14.276 18.1685 14.7059 18.1685C14.7687 18.1685 14.8325 18.1625 14.8954 18.1485C15.396 18.0438 15.7182 17.5521 15.6134 17.0514C15.5626 16.8101 15.42 16.6016 15.2135 16.466ZM14.7677 17.5401C14.6031 17.574 14.4406 17.4683 14.4067 17.3038C14.3727 17.1392 14.4785 16.9766 14.643 16.9427C14.7228 16.9258 14.8046 16.9417 14.8724 16.9856C14.9402 17.0305 14.9871 17.0993 15.0041 17.1791C15.039 17.3436 14.9333 17.5062 14.7677 17.5401ZM16.8322 14.5621C14.3249 15.0857 12.8278 15.9703 12.6143 17.0524C12.5714 17.2689 12.5824 17.4823 12.6432 17.6868L12.8517 18.6821C12.9245 19.2346 13.3484 19.7303 14.0176 20.0435C14.4295 20.2359 14.983 20.3726 15.6054 20.3726C16.3504 20.3726 17.1941 20.1771 18.0099 19.6475C18.3899 19.4012 18.6303 19.1518 18.8417 18.9314C19.1728 18.5873 19.4112 18.339 20.0814 18.2004C20.2609 18.1635 20.4245 18.1076 20.5681 18.0368C21.0199 17.8114 21.2543 17.3277 21.1506 16.833L20.8992 15.6303C20.8523 15.4039 20.7466 15.2164 20.5791 15.0578C20.246 14.7426 19.2139 14.0644 16.8322 14.5621ZM20.5422 16.9597C20.5871 17.1731 20.4854 17.3825 20.2899 17.4803C20.1942 17.5282 20.0815 17.5651 19.9548 17.592C19.0961 17.7695 18.754 18.1246 18.393 18.5006C18.1955 18.706 17.991 18.9185 17.6709 19.1259C16.3873 19.9577 15.0419 19.837 14.28 19.48C13.8651 19.2855 13.5869 19.0152 13.4951 18.724L13.4891 18.6931C14.5014 19.3104 16.2537 19.4221 17.7588 18.4467C18.1388 18.2004 18.3792 17.9511 18.5906 17.7306C18.9217 17.3865 19.1601 17.1382 19.8303 16.9996C20.0906 16.9457 20.315 16.854 20.4945 16.7303L20.5422 16.9597ZM20.1523 15.5085C20.2281 15.5804 20.269 15.6542 20.2909 15.7559L20.3378 15.9823C20.2779 16.1658 20.0406 16.3194 19.7045 16.3892C18.8458 16.5667 18.5037 16.9218 18.1426 17.2978C17.9452 17.5032 17.7407 17.7157 17.4206 17.9231C16.0911 18.7848 14.5612 18.6701 13.7363 18.1126C13.5069 17.957 13.1339 17.6279 13.2237 17.1721C13.2825 16.8739 13.7253 15.8467 16.9587 15.1705C17.4973 15.0578 17.971 15.0099 18.3809 15.0099C19.2746 15.0099 19.8641 15.2363 20.1523 15.5085Z" fill="white"/>
</svg>
